<svg id="visual" viewBox="0 0 960 200" width="960" height="200"
  xmlns="http://www.w3.org/2000/svg"
  xmlns:xlink="http://www.w3.org/1999/xlink" version="1.1">
  <rect x="0" y="0" width="960" height="200" fill="#F6768E"></rect>
  <path d="M0 91L32 95.2C64 99.3 128 107.7 192 111.5C256 115.3 320 114.7 384 118.7C448 122.7 512 131.3 576 129C640 126.7 704 113.3 768 105.7C832 98 896 96 928 95L960 94L960 0L928 0C896 0 832 0 768 0C704 0 640 0 576 0C512 0 448 0 384 0C320 0 256 0 192 0C128 0 64 0 32 0L0 0Z" fill="#f6768e"></path>
  <path d="M0 92L32 87.7C64 83.3 128 74.7 192 77.2C256 79.7 320 93.3 384 96.5C448 99.7 512 92.3 576 90.2C640 88 704 91 768 91.5C832 92 896 90 928 89L960 88L960 0L928 0C896 0 832 0 768 0C704 0 640 0 576 0C512 0 448 0 384 0C320 0 256 0 192 0C128 0 64 0 32 0L0 0Z" fill="#da8ccd"></path>
  <path d="M0 50L32 53.8C64 57.7 128 65.3 192 66.3C256 67.3 320 61.7 384 56.2C448 50.7 512 45.3 576 42.7C640 40 704 40 768 46.2C832 52.3 896 64.7 928 70.8L960 77L960 0L928 0C896 0 832 0 768 0C704 0 640 0 576 0C512 0 448 0 384 0C320 0 256 0 192 0C128 0 64 0 32 0L0 0Z" fill="#a4a8eb"></path>
  <path d="M0 29L32 32.8C64 36.7 128 44.3 192 47.5C256 50.7 320 49.3 384 47.7C448 46 512 44 576 43.5C640 43 704 44 768 40.2C832 36.3 896 27.7 928 23.3L960 19L960 0L928 0C896 0 832 0 768 0C704 0 640 0 576 0C512 0 448 0 384 0C320 0 256 0 192 0C128 0 64 0 32 0L0 0Z" fill="#7ebce6"></path>
</svg>