<svg id="visual" viewBox="0 0 960 200" width="960" height="200"
  xmlns="http://www.w3.org/2000/svg"
  xmlns:xlink="http://www.w3.org/1999/xlink" version="1.1">
  <rect x="0" y="0" width="960" height="200" fill="#F6768E"></rect>
  <path d="M0 137L32 132.2C64 127.3 128 117.7 192 117.3C256 117 320 126 384 122.2C448 118.3 512 101.7 576 102.7C640 103.7 704 122.3 768 128.3C832 134.3 896 127.7 928 124.3L960 121L960 0L928 0C896 0 832 0 768 0C704 0 640 0 576 0C512 0 448 0 384 0C320 0 256 0 192 0C128 0 64 0 32 0L0 0Z" fill="#f6768e"></path>
  <path class='wave' d="M0 81L32 79.8C64 78.7 128 76.3 192 73.7C256 71 320 68 384 69.2C448 70.3 512 75.7 576 78.5C640 81.3 704 81.7 768 81.8C832 82 896 82 928 82L960 82L960 0L928 0C896 0 832 0 768 0C704 0 640 0 576 0C512 0 448 0 384 0C320 0 256 0 192 0C128 0 64 0 32 0L0 0Z" fill="#da8ccd"></path>
  <path class='wave' d="M0 44L32 49.3C64 54.7 128 65.3 192 66C256 66.7 320 57.3 384 52.2C448 47 512 46 576 48.2C640 50.3 704 55.7 768 59C832 62.3 896 63.7 928 64.3L960 65L960 0L928 0C896 0 832 0 768 0C704 0 640 0 576 0C512 0 448 0 384 0C320 0 256 0 192 0C128 0 64 0 32 0L0 0Z" fill="#a4a8eb"></path>
  <path class='wave' d="M0 27L32 28C64 29 128 31 192 30.3C256 29.7 320 26.3 384 27.2C448 28 512 33 576 35.7C640 38.3 704 38.7 768 35.8C832 33 896 27 928 24L960 21L960 0L928 0C896 0 832 0 768 0C704 0 640 0 576 0C512 0 448 0 384 0C320 0 256 0 192 0C128 0 64 0 32 0L0 0Z" fill="#7ebce6"></path>
</svg>